<?xml version="1.0" encoding="utf-8"?>
<!-- Generator: Adobe Illustrator 25.2.3, SVG Export Plug-In . SVG Version: 6.00 Build 0)  -->
<svg version="1.1" id="Calque_1" xmlns="http://www.w3.org/2000/svg" xmlns:xlink="http://www.w3.org/1999/xlink" x="0px" y="0px"
	 viewBox="0 0 18 18" style="enable-background:new 0 0 18 18;" xml:space="preserve">
<circle fill= "#666" cx="9" cy="9" r="1.4"/>
<path fill= "#666" d="M9,0C4,0,0,4,0,9c0,5,4,9,9,9s9-4,9-9C18,4,14,0,9,0z M13.2,8.5l0,0.1c0,0.1,0,0.2,0,0.3s0,0.2,0,0.3l0,0.1l0,0.2h0.2h3.2
	c-0.3,3.6-3.2,6.6-6.9,6.9v-3.2v-0.2l-0.2,0l-0.1,0c-0.1,0-0.2,0-0.3,0c-0.1,0-0.2,0-0.3,0l-0.1,0l-0.2,0v0.2v3.2
	c-3.6-0.3-6.5-3.2-6.9-6.9h3.2h0.2l0-0.2l0-0.1c0-0.1,0-0.2,0-0.3s0-0.2,0-0.3l0-0.1l0-0.2H4.6H1.4c0.3-3.6,3.2-6.5,6.9-6.9v3.2v0.2
	l0.2,0l0.1,0c0.1,0,0.2,0,0.3,0c0.1,0,0.2,0,0.3,0l0.1,0l0.2,0V4.6V1.4c3.6,0.3,6.6,3.2,6.9,6.9h-3.2h-0.2L13.2,8.5z"/>
</svg>
